<svg xmlns="http://www.w3.org/2000/svg" height="250" viewBox="0 0 700 250" width="700"><path fill="#fff" d="M0 0h700v250H0z"/><text font-size="40" y="149.452" x="302.218" font-family="sans-serif" word-spacing="0" letter-spacing="0"/><text font-size="40" y="138.952" x="322.568" font-family="sans-serif" word-spacing="0" letter-spacing="0"/><path stroke-linejoin="round" d="M201.92 144l-10 10m-30-10h40l-10-10" stroke="#000" stroke-width="4" fill="none"/><text font-size="40" y="181.042" x="161.812" font-family="sans-serif" word-spacing="0" letter-spacing="0"><tspan y="181.042" x="161.812" font-size="17.5">conv</tspan></text><path stroke-linejoin="round" d="M24.2 203.44h107.7V95.74H24.2z" fill-rule="evenodd" stroke="#000" stroke-width="2.154" fill="#fff"/><text font-size="40" y="59.282" x="197.325" font-family="sans-serif" word-spacing="0" letter-spacing="0" transform="translate(-150.71)"><tspan y="59.282" x="197.325" font-size="20">28x28</tspan></text><g stroke-linejoin="round" stroke="#000" stroke-width="2" fill="none"><path d="M232.46 104.57l20-20h100v100l-20 20M332.46 104.57l20-20"/><path d="M232.46 104.57v100h100v-100z"/></g><text font-size="40" y="59.282" x="431.454" font-family="sans-serif" word-spacing="0" letter-spacing="0" transform="translate(-182.71)"><tspan y="59.282" x="431.454" font-size="20">26x26x8</tspan></text><g stroke-linejoin="round" stroke="#000" stroke-width="4" fill="none"><path d="M473.827 124.565l20-20h50v50l-20 20M523.827 124.565l20-20" stroke-width="2"/><path d="M473.827 124.565v50h50v-50z" stroke-width="2"/></g><text font-size="40" y="59.282" x="438.624" font-family="sans-serif" word-spacing="0" letter-spacing="0" transform="translate(26.122)"><tspan y="59.282" x="438.624" font-size="20">13x13x8</tspan></text><g><path stroke-linejoin="round" d="M430.54 144l-10 10m-30-10h40l-10-10" stroke="#000" stroke-width="4" fill="none"/><text font-size="40" y="181.042" x="369.812" font-family="sans-serif" word-spacing="0" letter-spacing="0" transform="translate(4)"><tspan y="181.042" x="369.812" font-size="17.5">maxpool</tspan></text></g><g><g stroke-linejoin="round" transform="translate(29.626 -12)" stroke="#000" stroke-width="2" fill="none"><circle cy="99.502" cx="636.28" r="5"/><circle cx="636.28" cy="114.5" r="5"/><circle cy="129.5" cx="636.28" r="5"/><circle cx="636.28" cy="144.5" r="5"/><circle cy="159.5" cx="636.28" r="5"/><circle cx="636.28" cy="174.5" r="5"/><circle cy="189.5" cx="636.28" r="5"/><circle cx="636.28" cy="204.5" r="5"/><circle cy="219.5" cx="636.28" r="5"/><circle cx="636.28" cy="234.5" r="5"/></g><text font-size="40" y="59.282" x="634.624" font-family="sans-serif" word-spacing="0" letter-spacing="0" transform="translate(18.122)"><tspan y="59.282" x="634.624" font-size="20">10</tspan></text></g><g><path stroke-linejoin="round" d="M618.612 144l-10 10m-30-10h40l-10-10" stroke="#000" stroke-width="4" fill="none"/><text font-size="40" y="181.042" x="547.69" font-family="sans-serif" word-spacing="0" letter-spacing="0" transform="translate(16.362)"><tspan y="181.042" x="547.69" font-size="17.5">softmax</tspan></text></g></svg>