<svg xmlns="http://www.w3.org/2000/svg" height="301" viewBox="0 0 600 301" width="600"><path stroke="#000" fill="none" d="M.5 51H50v49.5H.5z"/><path stroke="#000" d="M50.5 201H100v49.5H50.5z"/><text font-size="10" y="231.212" x="70.482" font-family="sans-serif" fill="#fff" word-spacing="0" letter-spacing="0"><tspan font-size="15" y="231.212" x="70.482">0</tspan></text><path stroke="#000" fill="#090909" d="M100.5 201H150v49.5h-49.5z"/><text font-size="10" y="231.22" x="120.533" font-family="sans-serif" fill="#fff" word-spacing="0" letter-spacing="0"><tspan font-size="15" y="231.22" x="120.533">9</tspan></text><path stroke="#000" d="M150.5 201H200v49.5h-49.5z"/><text font-size="10" y="231.212" x="170.482" font-family="sans-serif" fill="#fff" word-spacing="0" letter-spacing="0"><tspan font-size="15" y="231.212" x="170.482">0</tspan></text><path stroke="#000" d="M150.5 151H200v49.5h-49.5z"/><text font-size="10" y="181.22" x="170.482" font-family="sans-serif" fill="#fff" word-spacing="0" letter-spacing="0"><tspan font-size="15" y="181.22" x="170.482">0</tspan></text><path stroke="#000" fill="#1f1f1f" d="M150.5 101H200v49.5h-49.5z"/><text font-size="10" y="131.212" x="165.824" font-family="sans-serif" fill="#fff" word-spacing="0" letter-spacing="0"><tspan font-size="15" y="131.212" x="165.824">31</tspan></text><path stroke="#164bc5" stroke-width="2" fill="#505050" d="M100.5 101H150v49.5h-49.5z"/><text font-size="10" y="131.22" x="115.692" font-family="sans-serif" fill="#fff" word-spacing="0" letter-spacing="0"><tspan font-size="15" y="131.22" x="115.692">80</tspan></text><path stroke="#000" stroke-width=".5" fill="#5a5a5a" d="M100.5 151H150v49.5h-49.5z"/><text font-size="10" y="181.212" x="115.729" font-family="sans-serif" fill="#fff" word-spacing="0" letter-spacing="0"><tspan font-size="15" y="181.212" x="115.729">90</tspan></text><path stroke="#000" fill="#212121" d="M50.5 151H100v49.5H50.5z"/><text font-size="10" y="181.22" x="65.732" font-family="sans-serif" fill="#fff" word-spacing="0" letter-spacing="0"><tspan font-size="15" y="181.22" x="65.732">33</tspan></text><path stroke="#164bc5" stroke-width="2" d="M50.5 101H100v49.5H50.5z"/><text font-size="10" y="131.212" x="70.482" font-family="sans-serif" fill="#fff" word-spacing="0" letter-spacing="0"><tspan font-size="15" y="131.212" x="70.482">0</tspan></text><path stroke="#000" fill="#5f5f5f" d="M200.5 201H250v49.5h-49.5z"/><text font-size="10" y="231.212" x="215.886" font-family="sans-serif" fill="#fff" word-spacing="0" letter-spacing="0"><tspan font-size="15" y="231.212" x="215.886">95</tspan></text><path stroke="#000" fill="#4b4b4b" d="M200.5 151H250v49.5h-49.5z"/><text font-size="10" y="181.22" x="215.743" font-family="sans-serif" fill="#fff" word-spacing="0" letter-spacing="0"><tspan font-size="15" y="181.22" x="215.743">75</tspan></text><path stroke="#000" fill="#020202" d="M200.5 101H250v49.5h-49.5z"/><text font-size="10" y="131.212" x="220.482" font-family="sans-serif" fill="#fff" word-spacing="0" letter-spacing="0"><tspan font-size="15" y="131.212" x="220.482">2</tspan></text><path stroke="#164bc5" stroke-width="2" d="M50.5 51H100v49.5H50.5z"/><text font-size="10" y="81.212" x="70.482" font-family="sans-serif" fill="#fff" word-spacing="0" letter-spacing="0"><tspan font-size="15" y="81.212" x="70.482">0</tspan></text><path stroke="#164bc5" stroke-width="2" fill="#323232" d="M100.5 51H150v49.5h-49.5z"/><text font-size="10" y="81.212" x="115.622" font-family="sans-serif" fill="#fff" word-spacing="0" letter-spacing="0"><tspan font-size="15" y="81.212" x="115.622">50</tspan></text><path stroke="#000" d="M150.5 51H200v49.5h-49.5z"/><text font-size="10" y="81.212" x="170.482" font-family="sans-serif" fill="#fff" word-spacing="0" letter-spacing="0"><tspan font-size="15" y="81.212" x="170.482">0</tspan></text><path stroke="#000" fill="#1d1d1d" d="M200.5 51H250v49.5h-49.5z"/><text font-size="10" y="81.22" x="215.681" font-family="sans-serif" fill="#fff" word-spacing="0" letter-spacing="0"><tspan font-size="15" y="81.22" x="215.681">29</tspan></text><g fill="none"><g stroke="#000"><path d="M400 101h49.5v49.5H400zM450 101h49.5v49.5H450zM450 51h49.5v49.5H450z"/></g><path stroke="#164bc5" stroke-width="3" d="M400 51h49.5v49.5H400z"/><g stroke="#000"><path d="M500 101h49.5v49.5H500zM550 101h49.5v49.5H550zM550 51h49.5v49.5H550zM500 51h49.5v49.5H500z"/><g><path d="M500 201h49.5v49.5H500zM550 201h49.5v49.5H550zM550 151h49.5v49.5H550zM500 151h49.5v49.5H500z"/></g><g><path d="M400 201h49.5v49.5H400zM450 201h49.5v49.5H450zM450 151h49.5v49.5H450zM400 151h49.5v49.5H400z"/></g></g><path stroke="#164bc5" stroke-width="2" d="M.5 51H50v49.5H.5z"/></g><text font-size="10" y="81.212" x="20.482" font-family="sans-serif" word-spacing="0" letter-spacing="0"><tspan font-size="15" y="81.212" x="20.482">0</tspan></text><path stroke="#000" fill="none" d="M.5 101H50v49.5H.5z"/><path stroke="#164bc5" stroke-width="2" fill="none" d="M.5 101H50v49.5H.5z"/><text font-size="10" y="131.212" x="20.482" font-family="sans-serif" word-spacing="0" letter-spacing="0"><tspan font-size="15" y="131.212" x="20.482">0</tspan></text><path stroke="#000" fill="none" d="M.5 151H50v49.5H.5z"/><path stroke="#000" fill="none" d="M.5 151H50v49.5H.5z"/><text font-size="10" y="181.212" x="20.482" font-family="sans-serif" word-spacing="0" letter-spacing="0"><tspan font-size="15" y="181.212" x="20.482">0</tspan></text><path stroke="#000" fill="none" d="M.5 201H50v49.5H.5z"/><path stroke="#000" fill="none" d="M.5 201H50v49.5H.5z"/><text font-size="10" y="231.212" x="20.482" font-family="sans-serif" word-spacing="0" letter-spacing="0"><tspan font-size="15" y="231.212" x="20.482">0</tspan></text><path stroke="#000" fill="none" d="M.5 1H50v49.5H.5z"/><path stroke="#164bc5" stroke-width="2" fill="none" d="M.5 1H50v49.5H.5z"/><text font-size="10" y="31.212" x="20.482" font-family="sans-serif" word-spacing="0" letter-spacing="0"><tspan font-size="15" y="31.212" x="20.482">0</tspan></text><path stroke="#164bc5" stroke-width="2" fill="none" d="M50.5 1H100v49.5H50.5z"/><text font-size="10" y="31.212" x="70.482" font-family="sans-serif" word-spacing="0" letter-spacing="0"><tspan font-size="15" y="31.212" x="70.482">0</tspan></text><path stroke="#164bc5" stroke-width="2" fill="none" d="M100.5 1H150v49.5h-49.5z"/><text font-size="10" y="31.212" x="120.482" font-family="sans-serif" word-spacing="0" letter-spacing="0"><tspan font-size="15" y="31.212" x="120.482">0</tspan></text><path stroke="#000" fill="none" d="M150.5 1H200v49.5h-49.5z"/><text font-size="10" y="31.212" x="170.482" font-family="sans-serif" word-spacing="0" letter-spacing="0"><tspan font-size="15" y="31.212" x="170.482">0</tspan></text><path stroke="#000" fill="none" d="M200.5 1H250v49.5h-49.5z"/><text font-size="10" y="31.212" x="220.482" font-family="sans-serif" word-spacing="0" letter-spacing="0"><tspan font-size="15" y="31.212" x="220.482">0</tspan></text><path stroke="#000" fill="none" d="M250.5 1H300v49.5h-49.5z"/><text font-size="10" y="31.212" x="270.482" font-family="sans-serif" word-spacing="0" letter-spacing="0"><tspan font-size="15" y="31.212" x="270.482">0</tspan></text><path stroke="#000" fill="none" d="M250.5 101H300v49.5h-49.5z"/><text font-size="10" y="131.212" x="270.482" font-family="sans-serif" word-spacing="0" letter-spacing="0"><tspan font-size="15" y="131.212" x="270.482">0</tspan></text><path stroke="#000" fill="none" d="M250.5 51H300v49.5h-49.5z"/><text font-size="10" y="81.212" x="270.482" font-family="sans-serif" word-spacing="0" letter-spacing="0"><tspan font-size="15" y="81.212" x="270.482">0</tspan></text><path stroke="#000" fill="none" d="M250.5 201H300v49.5h-49.5z"/><text font-size="10" y="231.212" x="270.482" font-family="sans-serif" word-spacing="0" letter-spacing="0"><tspan font-size="15" y="231.212" x="270.482">0</tspan></text><path stroke="#000" fill="none" d="M250.5 151H300v49.5h-49.5z"/><text font-size="10" y="181.212" x="270.482" font-family="sans-serif" word-spacing="0" letter-spacing="0"><tspan font-size="15" y="181.212" x="270.482">0</tspan></text><path stroke="#000" fill="none" d="M250.5 251.04H300v49.5h-49.5z"/><text font-size="10" y="281.212" x="270.482" font-family="sans-serif" word-spacing="0" letter-spacing="0"><tspan font-size="15" y="281.212" x="270.482">0</tspan></text><path stroke="#000" fill="none" d="M150.5 251.04H200v49.5h-49.5z"/><text font-size="10" y="281.212" x="170.482" font-family="sans-serif" word-spacing="0" letter-spacing="0"><tspan font-size="15" y="281.212" x="170.482">0</tspan></text><path stroke="#000" fill="none" d="M200.5 251.04H250v49.5h-49.5z"/><text font-size="10" y="281.212" x="220.482" font-family="sans-serif" word-spacing="0" letter-spacing="0"><tspan font-size="15" y="281.212" x="220.482">0</tspan></text><path stroke="#000" fill="none" d="M50.5 251.04H100v49.5H50.5z"/><text font-size="10" y="281.212" x="70.482" font-family="sans-serif" word-spacing="0" letter-spacing="0"><tspan font-size="15" y="281.212" x="70.482">0</tspan></text><path stroke="#000" fill="none" d="M100.5 251.04H150v49.5h-49.5z"/><text font-size="10" y="281.212" x="120.482" font-family="sans-serif" word-spacing="0" letter-spacing="0"><tspan font-size="15" y="281.212" x="120.482">0</tspan></text><path stroke="#000" fill="none" d="M.5 251.04H50v49.5H.5z"/><text font-size="10" y="281.212" x="20.482" font-family="sans-serif" word-spacing="0" letter-spacing="0"><tspan font-size="15" y="281.212" x="20.482">0</tspan></text><path stroke="#164bc5" stroke-width="3" fill="none" d="M1 1.5h148.5V150H1z"/></svg>